<?xml version="1.0" encoding="UTF-8" standalone="no"?>
<!-- Created with Inkscape (http://www.inkscape.org/) -->

<svg
   width="210mm"
   height="297mm"
   viewBox="0 0 210 297"
   version="1.1"
   id="svg256198"
   inkscape:version="1.1.2 (b8e25be833, 2022-02-05)"
   sodipodi:docname="page_02.svg"
   xmlns:inkscape="http://www.inkscape.org/namespaces/inkscape"
   xmlns:sodipodi="http://sodipodi.sourceforge.net/DTD/sodipodi-0.dtd"
   xmlns="http://www.w3.org/2000/svg"
   xmlns:svg="http://www.w3.org/2000/svg">
  <sodipodi:namedview
     id="namedview256200"
     pagecolor="#ffffff"
     bordercolor="#666666"
     borderopacity="1.0"
     inkscape:pageshadow="2"
     inkscape:pageopacity="0.0"
     inkscape:pagecheckerboard="0"
     inkscape:document-units="mm"
     showgrid="false"
     inkscape:zoom="0.45291836"
     inkscape:cx="727.50418"
     inkscape:cy="649.12361"
     inkscape:window-width="1920"
     inkscape:window-height="1017"
     inkscape:window-x="-8"
     inkscape:window-y="-8"
     inkscape:window-maximized="1"
     inkscape:current-layer="layer1" />
  <defs
     id="defs256195" />
  <g
     inkscape:label="Layer 1"
     inkscape:groupmode="layer"
     id="layer1">
    <rect
       style="opacity:1;fill:#ffc3c3;fill-opacity:1;stroke:none;stroke-width:3.45211"
       id="rect258266"
       width="260.64951"
       height="72.032318"
       x="-21.47983"
       y="-0.98364449" />
    <rect
       style="opacity:0.2;fill:#0018cc;fill-opacity:1;stroke:none;stroke-width:3.39172"
       id="rect257909-1"
       width="232.90413"
       height="43.640808"
       x="-10.946453"
       y="253.65208" />
    <rect
       style="opacity:0.2;fill:#0018cc;fill-opacity:1;stroke:none;stroke-width:3.39172"
       id="rect257909"
       width="232.90413"
       height="43.640808"
       x="-10.257389"
       y="78.164955" />
    <rect
       style="opacity:0.2;fill:#0018cc;fill-opacity:1;stroke:none;stroke-width:3.39172"
       id="rect257909-2"
       width="232.90413"
       height="43.640808"
       x="-10.946446"
       y="165.0713" />
    <g
       aria-label="B"
       id="text1178"
       style="font-weight:bold;font-size:25.1966px;line-height:1.25;-inkscape-font-specification:'sans-serif Bold';stroke-width:0.150629">
      <path
         d="m 21.535055,22.226478 q 3.603114,0 5.442465,1.007864 1.839352,1.007864 1.839352,3.552721 0,1.536992 -0.730701,2.595249 -0.705505,1.058257 -2.040925,1.285027 v 0.125983 q 0.907078,0.176376 1.637779,0.629915 0.730702,0.453539 1.159044,1.310223 0.428342,0.856684 0.428342,2.267694 0,2.44407 -1.763762,3.829883 -1.763762,1.385813 -4.837747,1.385813 H 15.94141 V 22.226478 Z m 0.428342,7.130638 q 1.662976,0 2.292891,-0.529129 0.655111,-0.529129 0.655111,-1.536992 0,-1.033061 -0.755898,-1.4866 -0.755898,-0.453539 -2.393677,-0.453539 h -2.015728 v 4.00626 z m -2.217301,3.023592 v 4.686567 h 2.494464 q 1.713368,0 2.393677,-0.655111 0.680308,-0.680309 0.680308,-1.788959 0,-1.007864 -0.705505,-1.612582 -0.680308,-0.629915 -2.494463,-0.629915 z"
         id="path957" />
    </g>
    <g
       aria-label="Si"
       id="text1178-0"
       style="font-weight:bold;font-size:25.1966px;line-height:1.25;-inkscape-font-specification:'sans-serif Bold';stroke-width:0.150629">
      <path
         d="m 59.698007,34.975932 q 0,2.393677 -1.738566,3.829883 -1.713369,1.41101 -4.88814,1.41101 -2.847216,0 -5.089713,-1.083454 v -3.55272 q 1.285026,0.554325 2.645643,1.03306 1.385813,0.453539 2.746429,0.453539 1.41101,0 1.990531,-0.529129 0.604719,-0.554325 0.604719,-1.385813 0,-0.680308 -0.478736,-1.159043 -0.453538,-0.478736 -1.234633,-0.881881 -0.781095,-0.428342 -1.788959,-0.907078 -0.629915,-0.302359 -1.360616,-0.705505 -0.730701,-0.428342 -1.41101,-1.03306 -0.655111,-0.629915 -1.083453,-1.511796 -0.428343,-0.881881 -0.428343,-2.116515 0,-2.418873 1.637779,-3.754293 1.637779,-1.360616 4.459799,-1.360616 1.411009,0 2.670839,0.327555 1.285027,0.327556 2.67084,0.932275 l -1.234634,2.973198 q -1.234633,-0.503932 -2.2173,-0.781094 -0.982668,-0.277163 -2.015728,-0.277163 -1.083454,0 -1.662976,0.503932 -0.579522,0.503932 -0.579522,1.310223 0,0.957471 0.856685,1.511796 0.856684,0.554326 2.544856,1.360617 1.385813,0.655111 2.343284,1.360616 0.982667,0.705505 1.511796,1.662976 0.529129,0.957471 0.529129,2.36848 z"
         id="path960" />
      <path
         d="m 64.560966,20.815443 q 0.831487,0 1.436206,0.403146 0.604718,0.377949 0.604718,1.436206 0,1.03306 -0.604718,1.436206 -0.604719,0.403146 -1.436206,0.403146 -0.856685,0 -1.461403,-0.403146 -0.579522,-0.403146 -0.579522,-1.436206 0,-1.058257 0.579522,-1.436206 0.604718,-0.403146 1.461403,-0.403146 z m 1.864548,5.392072 V 39.964859 H 62.671221 V 26.207515 Z"
         id="path962" />
    </g>
    <g
       aria-label="Se"
       id="text1178-8"
       style="font-weight:bold;font-size:25.1966px;line-height:1.25;-inkscape-font-specification:'sans-serif Bold';stroke-width:0.150629">
      <path
         d="m 97.773046,35.253081 q 0,2.393677 -1.738566,3.829884 -1.713369,1.411009 -4.88814,1.411009 -2.847216,0 -5.089713,-1.083454 V 35.8578 q 1.285026,0.554325 2.645643,1.03306 1.385813,0.453539 2.746429,0.453539 1.41101,0 1.990531,-0.529128 0.604719,-0.554326 0.604719,-1.385813 0,-0.680309 -0.478736,-1.159044 -0.453538,-0.478735 -1.234633,-0.881881 -0.781095,-0.428342 -1.788959,-0.907078 -0.629915,-0.302359 -1.360616,-0.705504 -0.730701,-0.428343 -1.41101,-1.033061 -0.655111,-0.629915 -1.083453,-1.511796 -0.428343,-0.881881 -0.428343,-2.116514 0,-2.418874 1.637779,-3.754294 1.637779,-1.360616 4.459799,-1.360616 1.411009,0 2.670839,0.327556 1.285027,0.327555 2.67084,0.932274 l -1.234634,2.973199 q -1.234633,-0.503932 -2.2173,-0.781095 -0.982668,-0.277163 -2.015728,-0.277163 -1.083454,0 -1.662976,0.503932 -0.579522,0.503932 -0.579522,1.310224 0,0.95747 0.856685,1.511796 0.856684,0.554325 2.544856,1.360616 1.385813,0.655112 2.343284,1.360616 0.982667,0.705505 1.511796,1.662976 0.529129,0.957471 0.529129,2.36848 z"
         id="path965" />
      <path
         d="m 106.41549,26.232699 q 2.84722,0 4.5102,1.637779 1.66297,1.612582 1.66297,4.610977 v 1.814156 h -8.8692 q 0.0504,1.587385 0.93227,2.494463 0.90708,0.907078 2.49447,0.907078 1.33542,0 2.41887,-0.251966 1.08345,-0.277163 2.2425,-0.831488 v 2.897609 q -1.00787,0.503932 -2.14171,0.730701 -1.10865,0.251966 -2.69604,0.251966 -2.06612,0 -3.65351,-0.755898 -1.58738,-0.781094 -2.49446,-2.343284 -0.907078,-1.562189 -0.907078,-3.930669 0,-2.418874 0.806288,-4.00626 0.83149,-1.612582 2.29289,-2.418873 1.46141,-0.806291 3.40154,-0.806291 z m 0.0252,2.670839 q -1.08345,0 -1.81415,0.705505 -0.70551,0.705505 -0.83149,2.192104 h 5.26609 q -0.0252,-1.25983 -0.65511,-2.066121 -0.62992,-0.831488 -1.96534,-0.831488 z"
         id="path967" />
    </g>
    <g
       aria-label="Ge"
       id="text1178-2"
       style="font-weight:bold;font-size:25.1966px;line-height:1.25;-inkscape-font-specification:'sans-serif Bold';stroke-width:0.150629">
      <path
         d="m 171.56983,29.861022 h 7.13064 v 9.322742 q -1.41101,0.478736 -2.948,0.755898 -1.5118,0.277163 -3.45193,0.277163 -4.03146,0 -6.19837,-2.36848 -2.16691,-2.368481 -2.16691,-6.903869 0,-2.822019 1.08346,-4.88814 1.10865,-2.066121 3.19997,-3.199968 2.09131,-1.133847 5.11491,-1.133847 1.4362,0 2.82202,0.302359 1.38581,0.302359 2.51966,0.806291 l -1.25983,3.048789 q -0.83149,-0.428343 -1.88975,-0.705505 -1.05826,-0.277163 -2.2173,-0.277163 -1.66298,0 -2.89761,0.755898 -1.20944,0.755898 -1.88974,2.141711 -0.65512,1.360617 -0.65512,3.225165 0,1.763762 0.47874,3.124378 0.47873,1.360617 1.5118,2.141711 1.03306,0.755898 2.69603,0.755898 0.80629,0 1.36062,-0.07559 0.57952,-0.07559 1.05826,-0.176377 v -3.754293 h -3.40155 z"
         id="path970" />
      <path
         d="m 188.35079,25.955549 q 2.84722,0 4.51019,1.637779 1.66298,1.612583 1.66298,4.610978 v 1.814155 h -8.8692 q 0.0504,1.587386 0.93227,2.494464 0.90708,0.907077 2.49446,0.907077 1.33542,0 2.41888,-0.251966 1.08345,-0.277162 2.24249,-0.831487 v 2.897609 q -1.00786,0.503932 -2.14171,0.730701 -1.10865,0.251966 -2.69603,0.251966 -2.06612,0 -3.65351,-0.755898 -1.58739,-0.781095 -2.49446,-2.343284 -0.90708,-1.562189 -0.90708,-3.930669 0,-2.418874 0.80629,-4.00626 0.83149,-1.612582 2.29289,-2.418873 1.4614,-0.806292 3.40154,-0.806292 z m 0.0252,2.67084 q -1.08345,0 -1.81416,0.705505 -0.7055,0.705505 -0.83148,2.192104 h 5.26609 q -0.0252,-1.25983 -0.65512,-2.066121 -0.62991,-0.831488 -1.96533,-0.831488 z"
         id="path972" />
    </g>
    <g
       aria-label="As"
       id="text1178-9"
       style="font-weight:bold;font-size:25.1966px;line-height:1.25;-inkscape-font-specification:'sans-serif Bold';stroke-width:0.150629">
      <path
         d="m 137.55008,40.21685 -1.31022,-4.283422 h -6.55111 l -1.31023,4.283422 h -4.10704 l 6.34954,-18.065962 h 4.66137 l 6.37474,18.065962 z m -3.52752,-11.666026 q -0.12598,-0.428342 -0.32755,-1.083453 -0.20158,-0.655112 -0.40315,-1.33542 -0.20157,-0.680308 -0.32756,-1.18424 -0.12598,0.503932 -0.35275,1.25983 -0.20157,0.730701 -0.40314,1.411009 -0.17638,0.655112 -0.27717,0.932274 l -1.28502,4.182636 h 4.68656 z"
         id="path975" />
      <path
         d="m 153.22238,36.135001 q 0,2.091318 -1.4866,3.225165 -1.4614,1.10865 -4.3842,1.10865 -1.43621,0 -2.46927,-0.201573 -1.03306,-0.176376 -2.06612,-0.604718 v -3.099182 q 1.10865,0.503932 2.39368,0.831488 1.28502,0.327556 2.26769,0.327556 1.10865,0 1.56219,-0.327556 0.47873,-0.327556 0.47873,-0.856684 0,-0.352753 -0.20157,-0.629915 -0.17638,-0.277163 -0.80629,-0.629915 -0.62992,-0.352753 -1.96534,-0.907078 -1.28502,-0.554325 -2.11651,-1.083454 -0.83149,-0.554325 -1.23463,-1.310223 -0.40315,-0.781095 -0.40315,-1.940138 0,-1.914942 1.4866,-2.872412 1.4866,-0.957471 3.95587,-0.957471 1.28502,0 2.44407,0.251966 1.15904,0.251966 2.39367,0.831488 l -1.13384,2.696036 q -1.00787,-0.428343 -1.91494,-0.705505 -0.90708,-0.302359 -1.83936,-0.302359 -1.66297,0 -1.66297,0.907077 0,0.327556 0.20157,0.604719 0.22677,0.251966 0.83149,0.554325 0.62991,0.302359 1.83935,0.806291 1.18424,0.478735 2.04093,1.007864 0.85668,0.503932 1.31022,1.285027 0.47873,0.755898 0.47873,1.990531 z"
         id="path977" />
    </g>
    <path
       style="fill:none;stroke:#000000;stroke-width:2.65582;stroke-linecap:round;stroke-linejoin:miter;stroke-miterlimit:4;stroke-dasharray:none;stroke-opacity:1"
       d="m 16.397776,50.996175 10.904043,0.0057 v 12.242301"
       id="path5211"
       sodipodi:nodetypes="ccc" />
    <path
       style="fill:none;stroke:#000000;stroke-width:2.65582;stroke-linecap:round;stroke-linejoin:miter;stroke-miterlimit:4;stroke-dasharray:none;stroke-opacity:1"
       d="m 154.8519,55.553189 c -4.13772,-0.03416 -8.17763,0.05181 -10.23551,0.745735 -2.14155,0.722108 -3.66679,2.450124 -4.63558,3.716205 -0.67628,-0.867794 -2.2737,-3.042602 -4.19112,-3.571089 -3.43019,-0.945448 -7.78982,-0.883223 -10.76832,-0.874456"
       id="path5211-6-1"
       sodipodi:nodetypes="cscsc" />
    <path
       style="fill:none;stroke:#000000;stroke-width:2.65582;stroke-linecap:round;stroke-linejoin:miter;stroke-miterlimit:4;stroke-dasharray:none;stroke-opacity:1"
       d="m 183.88682,59.496661 c 3.95736,-0.730875 2.09328,-5.612338 -1.25276,-4.842692 -2.26555,0.521143 -4.14011,1.940424 -4.44776,4.07817 -0.38309,2.661794 1.7226,5.377488 6.15613,5.481342 11.26567,0.263896 7.62564,-18.554215 -5.02982,-13.43296 -2.34418,1.028509 -4.53851,2.289979 -6.50006,3.387829 -2.12647,1.190136 -3.97945,2.187959 -5.45322,2.488155"
       id="path5211-6-1-6-2"
       sodipodi:nodetypes="cssscsc" />
    <ellipse
       style="fill:none;stroke:#000000;stroke-width:2.65582;stroke-linecap:round;stroke-miterlimit:4;stroke-dasharray:none;stroke-opacity:1"
       id="path9322-2"
       cx="139.57539"
       cy="-57.452377"
       rx="8.2436304"
       ry="7.967885"
       transform="scale(1,-1)" />
    <text
       xml:space="preserve"
       style="font-weight:bold;font-size:10.831px;line-height:1.25;font-family:sans-serif;-inkscape-font-specification:'sans-serif Bold';stroke-width:0.150629"
       x="16.839369"
       y="17.806446"
       id="text15196"><tspan
         sodipodi:role="line"
         id="tspan15194"
         style="stroke-width:0.150629"
         x="16.839369"
         y="17.806446">硼</tspan></text>
    <text
       xml:space="preserve"
       style="font-weight:bold;font-size:10.831px;line-height:1.25;font-family:sans-serif;-inkscape-font-specification:'sans-serif Bold';stroke-width:0.150629"
       x="52.510956"
       y="17.713598"
       id="text15196-7"><tspan
         sodipodi:role="line"
         id="tspan15194-3"
         style="stroke-width:0.150629"
         x="52.510956"
         y="17.713598">硅</tspan></text>
    <g
       aria-label="Si"
       id="text1178-0-6"
       style="font-weight:bold;font-size:21.8412px;line-height:1.25;-inkscape-font-specification:'sans-serif Bold';stroke-width:0.13057">
      <path
         d="m 30.814366,149.18188 q 0,2.07492 -1.507043,3.31986 -1.485201,1.22311 -4.237192,1.22311 -2.468056,0 -4.411923,-0.93917 v -3.07961 q 1.113901,0.48051 2.293326,0.89549 1.201266,0.39314 2.380691,0.39314 1.223107,0 1.725455,-0.45866 0.524189,-0.48051 0.524189,-1.20127 0,-0.58971 -0.414983,-1.0047 -0.393142,-0.41498 -1.070219,-0.76444 -0.677077,-0.3713 -1.550725,-0.78628 -0.54603,-0.26209 -1.179425,-0.61155 -0.633395,-0.3713 -1.223107,-0.89549 -0.567871,-0.54603 -0.939172,-1.31048 -0.3713,-0.76444 -0.3713,-1.83466 0,-2.09675 1.419678,-3.25433 1.419678,-1.17943 3.865892,-1.17943 1.223107,0 2.315167,0.28394 1.113901,0.28393 2.315167,0.80812 l -1.070218,2.57726 q -1.070219,-0.43682 -1.922026,-0.67708 -0.851807,-0.24025 -1.747296,-0.24025 -0.939171,0 -1.441519,0.43683 -0.502348,0.43682 -0.502348,1.13574 0,0.82996 0.742601,1.31047 0.742601,0.48051 2.205961,1.17942 1.201266,0.56788 2.031232,1.17943 0.851807,0.61155 1.310472,1.44152 0.458665,0.82996 0.458665,2.05307 z"
         id="path1142" />
      <path
         d="m 35.029731,136.90713 q 0.72076,0 1.244948,0.34946 0.524189,0.32761 0.524189,1.24494 0,0.89549 -0.524189,1.24495 -0.524188,0.34946 -1.244948,0.34946 -0.742601,0 -1.26679,-0.34946 -0.502347,-0.34946 -0.502347,-1.24495 0,-0.91733 0.502347,-1.24494 0.524189,-0.34946 1.26679,-0.34946 z m 1.616249,4.67401 v 11.9253 h -3.254339 v -11.9253 z"
         id="path1144" />
    </g>
    <g
       aria-label="硅"
       id="text15196-7-1"
       style="font-weight:bold;font-size:9.38872px;line-height:1.25;-inkscape-font-specification:'sans-serif Bold';stroke-width:0.13057">
      <path
         d="m 28.123441,128.08908 h -1.10941 q -0.183373,0.77017 -0.449265,1.48533 h 1.402807 v 4.83189 h -1.540337 v 0.57762 h -1.036059 v -3.00732 q -0.137531,0.20171 -0.275061,0.40342 -0.174204,-0.77934 -0.476771,-1.41198 0.852687,-1.26527 1.210265,-2.87896 h -0.89853 v -1.02689 h 3.172361 z m -0.128362,5.87712 h 2.282999 v -1.09107 H 28.33432 v -1.09107 h 1.943758 v -0.85269 h 1.228602 v 0.85269 h 1.879578 v 1.09107 H 31.50668 v 1.09107 h 2.338012 v 1.09107 h -5.849613 z m 0.265892,-4.36429 h 2.017107 v -0.97188 h -1.787891 v -1.09107 h 1.787891 v -1.07273 h 1.228602 v 1.07273 h 1.888747 v 1.09107 H 31.50668 v 0.97188 h 2.237156 v 1.09107 h -5.482865 z m -1.329458,3.805 v -2.83312 h -0.504277 v 2.83312 z"
         id="path1147" />
    </g>
    <text
       xml:space="preserve"
       style="font-weight:bold;font-size:10.831px;line-height:1.25;font-family:sans-serif;-inkscape-font-specification:'sans-serif Bold';stroke-width:0.150629"
       x="93.240646"
       y="17.750568"
       id="text22913"><tspan
         sodipodi:role="line"
         id="tspan22911"
         style="stroke-width:0.150629"
         x="93.240646"
         y="17.750568">硒</tspan></text>
    <g
       aria-label="Se"
       id="text1178-8-9"
       style="font-weight:bold;font-size:21.8412px;line-height:1.25;-inkscape-font-specification:'sans-serif Bold';stroke-width:0.13057">
      <path
         d="m 30.337481,196.82374 q 0,2.07492 -1.507043,3.31986 -1.485201,1.22311 -4.237192,1.22311 -2.468056,0 -4.411923,-0.93917 v -3.07961 q 1.113902,0.48051 2.293326,0.89549 1.201266,0.39314 2.380691,0.39314 1.223107,0 1.725455,-0.45866 0.524189,-0.48051 0.524189,-1.20127 0,-0.58971 -0.414983,-1.00469 -0.393142,-0.41499 -1.070219,-0.76445 -0.677077,-0.3713 -1.550725,-0.78628 -0.54603,-0.26209 -1.179425,-0.61155 -0.633395,-0.3713 -1.223107,-0.89549 -0.567871,-0.54603 -0.939172,-1.31047 -0.3713,-0.76445 -0.3713,-1.83466 0,-2.09676 1.419678,-3.25434 1.419678,-1.17943 3.865892,-1.17943 1.223107,0 2.315167,0.28394 1.113902,0.28393 2.315168,0.80812 l -1.070219,2.57726 q -1.070219,-0.43682 -1.922026,-0.67707 -0.851807,-0.24026 -1.747296,-0.24026 -0.939171,0 -1.441519,0.43683 -0.502348,0.43682 -0.502348,1.13574 0,0.82996 0.742601,1.31047 0.742601,0.48051 2.205961,1.17943 1.201266,0.56787 2.031232,1.17942 0.851807,0.61155 1.310472,1.44152 0.458665,0.82997 0.458665,2.05307 z"
         id="path1150" />
      <path
         d="m 37.829026,189.00459 q 2.468056,0 3.909575,1.41968 1.441519,1.39784 1.441519,3.99694 v 1.57257 h -7.688102 q 0.04368,1.37599 0.808124,2.16228 0.786283,0.78628 2.162279,0.78628 1.157583,0 2.096755,-0.21841 0.939172,-0.24026 1.943867,-0.72076 v 2.51174 q -0.873648,0.43682 -1.856502,0.63339 -0.961013,0.21841 -2.337009,0.21841 -1.790978,0 -3.166973,-0.65523 -1.375996,-0.67708 -2.162279,-2.03124 -0.786283,-1.35415 -0.786283,-3.40722 0,-2.09676 0.698918,-3.47275 0.72076,-1.39784 1.987549,-2.09676 1.26679,-0.69892 2.948562,-0.69892 z m 0.02184,2.31517 q -0.939171,0 -1.572566,0.61155 -0.611554,0.61156 -0.72076,1.90019 h 4.564811 q -0.02184,-1.09206 -0.567871,-1.79098 -0.54603,-0.72076 -1.703614,-0.72076 z"
         id="path1152" />
    </g>
    <path
       style="fill:none;stroke:#000000;stroke-width:2.30215;stroke-linecap:round;stroke-linejoin:miter;stroke-miterlimit:4;stroke-dasharray:none;stroke-opacity:1"
       d="m 57.304019,182.04003 c -6.193529,10.17626 6.314591,10.85255 7.239105,8.31779"
       id="path5211-6-8-3-4"
       sodipodi:nodetypes="cc" />
    <ellipse
       style="fill:none;stroke:#000000;stroke-width:2.30215;stroke-linecap:round;stroke-miterlimit:4;stroke-dasharray:none;stroke-opacity:1"
       id="path9322-93"
       cx="-190.29393"
       cy="60.752228"
       rx="9.2948303"
       ry="9.4051304"
       transform="rotate(-90)" />
    <ellipse
       style="fill:none;stroke:#000000;stroke-width:2.30215;stroke-linecap:round;stroke-miterlimit:4;stroke-dasharray:none;stroke-opacity:1"
       id="path9322-93-8-7"
       cx="-188.15674"
       cy="140.69093"
       rx="3.7249913"
       ry="3.788173"
       transform="rotate(-90)" />
    <ellipse
       style="fill:none;stroke:#000000;stroke-width:2.30215;stroke-linecap:round;stroke-miterlimit:4;stroke-dasharray:none;stroke-opacity:1"
       id="path9322-93-8-7-3"
       cx="-182.04819"
       cy="176.08598"
       rx="3.7249913"
       ry="3.788173"
       transform="rotate(-90)" />
    <path
       style="fill:none;stroke:#000000;stroke-width:2.30215;stroke-linecap:round;stroke-linejoin:miter;stroke-miterlimit:4;stroke-dasharray:none;stroke-opacity:1"
       d="M 76.535789,177.73819 H 94.874044"
       id="path5211-6-8-3-4-2"
       sodipodi:nodetypes="cc" />
    <path
       style="fill:none;stroke:#000000;stroke-width:2.30215;stroke-linecap:round;stroke-linejoin:miter;stroke-miterlimit:4;stroke-dasharray:none;stroke-opacity:1"
       d="m 148.57753,180.41624 -20.51085,20.51101"
       id="path5211-6-8-3-4-6-6"
       sodipodi:nodetypes="cc" />
    <ellipse
       style="fill:none;stroke:#000000;stroke-width:2.30215;stroke-linecap:round;stroke-miterlimit:4;stroke-dasharray:none;stroke-opacity:1"
       id="path9322-93-8-6"
       cx="-36.172611"
       cy="232.63367"
       rx="6.2337599"
       ry="6.3333597"
       transform="matrix(0.70710447,-0.70710909,0.70710447,0.70710909,0,0)" />
    <path
       style="fill:none;stroke:#000000;stroke-width:2.30215;stroke-linecap:round;stroke-linejoin:miter;stroke-miterlimit:4;stroke-dasharray:none;stroke-opacity:1"
       d="m 127.59159,178.96678 6.13402,6.13408"
       id="path5211-6-8-3-4-2-8-7"
       sodipodi:nodetypes="cc" />
    <path
       style="fill:none;stroke:#000000;stroke-width:2.30215;stroke-linecap:round;stroke-linejoin:miter;stroke-miterlimit:4;stroke-dasharray:none;stroke-opacity:1"
       d="m 144.14517,195.51395 6.13407,6.13407"
       id="path5211-6-8-3-4-2-8-7-5"
       sodipodi:nodetypes="cc" />
    <path
       style="fill:none;stroke:#000000;stroke-width:2.30215;stroke-linecap:round;stroke-linejoin:miter;stroke-miterlimit:4;stroke-dasharray:none;stroke-opacity:1"
       d="m 172.3973,198.35182 5.59794,-24.18115"
       id="path5211-6-8-3-4-6-6-2"
       sodipodi:nodetypes="cc" />
    <ellipse
       style="fill:none;stroke:#000000;stroke-width:2.30214;stroke-linecap:round;stroke-miterlimit:4;stroke-dasharray:none;stroke-opacity:1"
       id="path9322-93-8-6-2"
       cx="139.66972"
       cy="-213.55734"
       rx="7.8531427"
       ry="7.9715638"
       transform="matrix(-0.23200562,0.97271445,-0.97261048,-0.23244108,0,0)" />
    <path
       style="fill:none;stroke:#000000;stroke-width:2.30215;stroke-linecap:round;stroke-linejoin:miter;stroke-miterlimit:4;stroke-dasharray:none;stroke-opacity:1"
       d="m 187.36036,205.82491 c 3.76648,-12.53237 1.99949,-15.07378 -4.2696,-16.79599"
       id="path5211-6-8-3-4-2-8-7-2"
       sodipodi:nodetypes="cc" />
    <path
       style="fill:none;stroke:#000000;stroke-width:2.30215;stroke-linecap:round;stroke-linejoin:miter;stroke-miterlimit:4;stroke-dasharray:none;stroke-opacity:1"
       d="m 166.46804,183.57492 c -7.24394,-2.51169 -11.07843,8.85502 -11.3808,16.80134"
       id="path5211-6-8-3-4-2-8-7-5-1"
       sodipodi:nodetypes="cc" />
    <path
       style="fill:none;stroke:#000000;stroke-width:2.30215;stroke-linecap:round;stroke-linejoin:miter;stroke-miterlimit:4;stroke-dasharray:none;stroke-opacity:1"
       d="m 168.80832,190.59907 c -5.82879,-2.02103 -6.57741,6.34977 -7.48865,13.83208"
       id="path5211-6-8-3-4-2-8-7-5-1-1"
       sodipodi:nodetypes="cc" />
    <path
       style="fill:none;stroke:#000000;stroke-width:2.30215;stroke-linecap:round;stroke-linejoin:miter;stroke-miterlimit:4;stroke-dasharray:none;stroke-opacity:1"
       d="m 179.51905,192.52748 c 5.71475,0.77601 3.36611,7.64847 0.93847,14.33067"
       id="path5211-6-8-3-4-2-8-7-5-1-1-4"
       sodipodi:nodetypes="cc" />
    <path
       style="fill:none;stroke:#000000;stroke-width:2.30215;stroke-linecap:round;stroke-linejoin:miter;stroke-miterlimit:4;stroke-dasharray:none;stroke-opacity:1"
       d="m 116.51662,178.32273 c -7.7274,5.18589 -5.23487,21.38993 3.11054,23.73359"
       id="path5211-6-8-3-4-6-0"
       sodipodi:nodetypes="cc" />
    <ellipse
       style="fill:none;stroke:#000000;stroke-width:2.30359;stroke-linecap:round;stroke-miterlimit:4;stroke-dasharray:none;stroke-opacity:1"
       id="path9322-93-8-5"
       cx="-166.93872"
       cy="-147.99478"
       rx="3.8671472"
       ry="5.4449525"
       transform="matrix(0.20402694,-0.97896527,-0.98793999,-0.15483725,0,0)" />
    <ellipse
       style="fill:none;stroke:#000000;stroke-width:2.30384;stroke-linecap:round;stroke-miterlimit:4;stroke-dasharray:none;stroke-opacity:1"
       id="path9322-93-8-5-9"
       cx="-170.00058"
       cy="-148.89954"
       rx="6.4553299"
       ry="9.0743017"
       transform="matrix(0.20610108,-0.97853071,-0.98827891,-0.15265907,0,0)" />
    <ellipse
       style="fill:none;stroke:#000000;stroke-width:2.30215;stroke-linecap:round;stroke-miterlimit:4;stroke-dasharray:none;stroke-opacity:1"
       id="path9322-93-2"
       cx="-91.892456"
       cy="177.70775"
       rx="3.8829575"
       ry="3.8503597"
       transform="scale(-1,1)" />
    <ellipse
       style="fill:none;stroke:#000000;stroke-width:2.30215;stroke-linecap:round;stroke-miterlimit:4;stroke-dasharray:none;stroke-opacity:1"
       id="path9322-93-2-7"
       cx="-87.992706"
       cy="202.09071"
       rx="4.4741855"
       ry="3.4011714"
       transform="scale(-1,1)" />
    <ellipse
       style="fill:none;stroke:#000000;stroke-width:2.30215;stroke-linecap:round;stroke-miterlimit:4;stroke-dasharray:none;stroke-opacity:1"
       id="path9322-93-2-1"
       cx="-88.768906"
       cy="178.0127"
       rx="7.1926904"
       ry="7.1386604"
       transform="scale(-1,1)" />
    <ellipse
       style="fill:none;stroke:#000000;stroke-width:2.30215;stroke-linecap:round;stroke-miterlimit:4;stroke-dasharray:none;stroke-opacity:1"
       id="path9322-93-2-3"
       cx="29.267681"
       cy="198.62433"
       rx="3.9147294"
       ry="3.881665"
       transform="matrix(-0.89776686,0.44047096,0.44042272,0.89779052,0,0)" />
    <path
       style="fill:none;stroke:#000000;stroke-width:2.30215;stroke-linecap:round;stroke-linejoin:miter;stroke-miterlimit:4;stroke-dasharray:none;stroke-opacity:1"
       d="m 87.949343,188.36816 0.04196,16.13225"
       id="path5211-6-8-3-4-2-1"
       sodipodi:nodetypes="cc" />
    <ellipse
       style="fill:none;stroke:#000000;stroke-width:2.30215;stroke-linecap:round;stroke-miterlimit:4;stroke-dasharray:none;stroke-opacity:1"
       id="path9322-93-2-5"
       cx="-87.707947"
       cy="200.09834"
       rx="12.006468"
       ry="5.4487343"
       transform="scale(-1,1)" />
    <g
       aria-label="硒"
       id="text22913-09"
       style="font-weight:bold;font-size:9.38872px;line-height:1.25;-inkscape-font-specification:'sans-serif Bold';stroke-width:0.13057">
      <path
         d="m 30.112819,176.25626 h 1.439482 v -0.95354 h -1.531168 v -1.04523 h 5.592889 v 1.04523 h -1.705373 v 0.95354 h 1.485325 v 6.61978 h -1.054397 v -0.52261 h -3.17236 v 0.52261 h -1.054398 z m -0.348409,-0.66014 h -1.008554 q -0.183373,0.761 -0.430928,1.47615 h 1.31112 v 5.36367 h -0.990216 v -0.39425 h -0.458434 v 0.48594 h -0.990216 v -3.0715 q -0.128362,0.22004 -0.265892,0.42176 -0.183373,-0.80685 -0.47677,-1.43032 0.779337,-1.21026 1.201095,-2.85145 h -0.889361 v -1.04523 h 2.998156 z m 3.17236,3.6858 v -1.98043 h -0.41259 v 0.47677 q 0,1.77872 -0.806843,2.83312 -0.247554,-0.21088 -0.55012,-0.44927 v 1.14609 h 3.17236 v -1.07274 h -0.513446 q -0.889361,0 -0.889361,-0.95354 z m -4.290938,1.74205 v -2.93398 h -0.458434 v 2.93398 z m 5.767094,-3.72248 h -0.504277 v 1.56784 q 0,0.41259 0.412591,0.41259 h 0.09169 z m -3.30989,2.36552 q 0.458433,-0.83435 0.449265,-2.09046 v -0.27506 h -0.449265 z m 1.421144,-3.41075 h 0.41259 v -0.95354 h -0.41259 z"
         id="path1155" />
    </g>
    <text
       xml:space="preserve"
       style="font-weight:bold;font-size:10.831px;line-height:1.25;font-family:sans-serif;-inkscape-font-specification:'sans-serif Bold';stroke-width:0.150629"
       x="133.66286"
       y="17.78233"
       id="text23511"><tspan
         sodipodi:role="line"
         id="tspan23509"
         style="stroke-width:0.150629"
         x="133.66286"
         y="17.78233">砷</tspan></text>
    <g
       aria-label="As"
       id="text1178-9-0"
       style="font-weight:bold;font-size:21.8412px;line-height:1.25;-inkscape-font-specification:'sans-serif Bold';stroke-width:0.13057">
      <path
         d="m 30.159248,282.59805 -1.135743,-3.713 h -5.678712 l -1.135742,3.713 h -3.560116 l 5.503983,-15.66014 h 4.040622 l 5.525823,15.66014 z M 27.10148,272.48558 q -0.109206,-0.3713 -0.283936,-0.93917 -0.17473,-0.56788 -0.349459,-1.15759 -0.17473,-0.58971 -0.283936,-1.02653 -0.109206,0.43682 -0.305777,1.09206 -0.174729,0.63339 -0.349459,1.2231 -0.152888,0.56787 -0.240253,0.80813 l -1.113901,3.62564 h 4.062463 z"
         id="path1158" />
      <path
         d="m 43.744485,279.05978 q 0,1.81282 -1.28863,2.79567 -1.26679,0.96101 -3.800369,0.96101 -1.244949,0 -2.140438,-0.17472 -0.895489,-0.15289 -1.790978,-0.52419 v -2.68647 q 0.961013,0.43682 2.074914,0.72076 1.113901,0.28393 1.965708,0.28393 0.961013,0 1.354154,-0.28393 0.414983,-0.28394 0.414983,-0.7426 0,-0.30578 -0.17473,-0.54603 -0.152888,-0.24026 -0.698918,-0.54603 -0.54603,-0.30578 -1.703614,-0.78629 -1.113901,-0.4805 -1.83466,-0.93917 -0.72076,-0.4805 -1.070219,-1.13574 -0.349459,-0.67708 -0.349459,-1.68177 0,-1.65993 1.28863,-2.4899 1.288631,-0.82996 3.429069,-0.82996 1.113901,0 2.118596,0.21841 1.004695,0.21841 2.074914,0.72076 l -0.982854,2.33701 q -0.873648,-0.3713 -1.659931,-0.61156 -0.786283,-0.26209 -1.594408,-0.26209 -1.441519,0 -1.441519,0.78628 0,0.28394 0.17473,0.52419 0.196571,0.21841 0.720759,0.48051 0.54603,0.26209 1.594408,0.69891 1.026536,0.41499 1.769137,0.87365 0.742601,0.43683 1.135743,1.1139 0.414982,0.65524 0.414982,1.72546 z"
         id="path1160" />
    </g>
    <path
       style="fill:none;stroke:#000000;stroke-width:2.30215;stroke-linecap:round;stroke-linejoin:miter;stroke-miterlimit:4;stroke-dasharray:none;stroke-opacity:1"
       d="m 67.831117,294.33037 c 0.041,-4.89879 -0.06255,-9.68184 -0.899785,-12.11829 -0.871214,-2.53548 -2.956224,-4.34122 -4.483781,-5.48822 1.047047,-0.80069 3.671044,-2.69199 4.308687,-4.96208 1.140712,-4.06118 1.06565,-9.22275 1.055086,-12.74908"
       id="path5211-6-1-3"
       sodipodi:nodetypes="cscsc" />
    <ellipse
       style="fill:none;stroke:#000000;stroke-width:2.30216;stroke-linecap:round;stroke-miterlimit:4;stroke-dasharray:none;stroke-opacity:1"
       id="path9322-2-2"
       cx="276.24384"
       cy="65.539551"
       rx="9.7600069"
       ry="9.6136484"
       transform="matrix(0,1,1,0,0,0)" />
    <path
       style="fill:none;stroke:#000000;stroke-width:2.30215;stroke-linecap:round;stroke-linejoin:miter;stroke-miterlimit:4;stroke-dasharray:none;stroke-opacity:1"
       d="m 161.27693,266.17356 c -5.31043,0.0434 -15.33909,7.2283 -18.38927,11.62849 -4.21177,-4.98403 -10.23406,-10.62699 -19.76139,-12.09045"
       id="path5211-6-1-3-15"
       sodipodi:nodetypes="ccc" />
    <ellipse
       style="fill:none;stroke:#000000;stroke-width:2.3022;stroke-linecap:round;stroke-miterlimit:4;stroke-dasharray:none;stroke-opacity:1"
       id="path9322-2-2-9"
       cx="151.37526"
       cy="-273.14075"
       rx="6.9691615"
       ry="6.8460178"
       transform="matrix(0.99976594,0.02163478,0.03042574,-0.99953703,0,0)" />
    <path
       style="fill:none;stroke:#000000;stroke-width:2.30215;stroke-linecap:round;stroke-linejoin:miter;stroke-miterlimit:4;stroke-dasharray:none;stroke-opacity:1"
       d="m 91.094423,288.56934 c 4.846752,-0.7134 19.092997,-4.12618 21.588597,-4.76588 2.46751,-0.63253 4.01373,-1.08281 5.90795,-1.79753 1.46326,2.79671 3.54313,7.11322 4.27947,8.34018"
       id="path5211-6-1-3-5"
       sodipodi:nodetypes="cscc" />
    <ellipse
       style="fill:none;stroke:#000000;stroke-width:2.30216;stroke-linecap:round;stroke-miterlimit:4;stroke-dasharray:none;stroke-opacity:1"
       id="path9322-2-2-48"
       cx="-73.00589"
       cy="298.51651"
       rx="8.8557768"
       ry="8.7215462"
       transform="matrix(-0.98808669,0.1538983,0.1538983,0.98808669,0,0)" />
    <path
       style="fill:none;stroke:#000000;stroke-width:2.30215;stroke-linecap:round;stroke-linejoin:miter;stroke-miterlimit:4;stroke-dasharray:none;stroke-opacity:1"
       d="m 106.58552,271.39737 c -3.42158,-0.29158 -6.27032,-0.0706 -16.057674,3.26718 0.649244,-0.86364 0.83958,-2.99295 0.856607,-4.35133 0.04341,-3.45555 -2.742197,-8.14253 -4.849555,-10.55108"
       id="path5211-6-1-3-1"
       sodipodi:nodetypes="ccsc" />
    <ellipse
       style="fill:none;stroke:#000000;stroke-width:2.30216;stroke-linecap:round;stroke-miterlimit:4;stroke-dasharray:none;stroke-opacity:1"
       id="path9322-2-2-4"
       cx="288.1702"
       cy="13.024315"
       rx="7.9952054"
       ry="7.8829327"
       transform="matrix(0.2704339,0.96273855,0.96273855,-0.2704339,0,0)" />
    <g
       aria-label="砷"
       id="text23511-1"
       style="font-weight:bold;font-size:9.38872px;line-height:1.25;-inkscape-font-specification:'sans-serif Bold';stroke-width:0.13057">
      <path
         d="m 32.602647,264.3568 v -2.33801 h -0.953542 v 0.4401 h -1.045229 v -5.70292 h 1.998771 v -1.42114 h 1.081903 v 1.42114 h 2.007939 v 5.68458 h -1.045228 v -0.42176 H 33.68455 v 2.33801 z m -2.218819,-7.33493 h -1.228602 q -0.20171,0.7885 -0.467602,1.51283 h 1.485325 v 5.0336 h -1.008554 v -0.45844 h -0.504277 v 0.74267 h -1.026891 v -3.07151 q -0.155868,0.25672 -0.320904,0.50428 -0.165036,-0.77017 -0.476771,-1.41198 0.825181,-1.24694 1.191928,-2.85145 h -0.852687 v -1.04523 h 3.209035 z m -1.219433,5.07944 v -2.55806 h -0.504277 v 2.55806 z m 4.520155,-1.14608 h 0.962711 v -1.06357 H 33.68455 Z m 0.962711,-3.13569 H 33.68455 v 1.06357 h 0.962711 z m -2.998156,3.13569 h 0.953542 v -1.06357 h -0.953542 z m 0,-2.07212 h 0.953542 v -1.06357 h -0.953542 z"
         id="path1163" />
    </g>
    <text
       xml:space="preserve"
       style="font-weight:bold;font-size:10.831px;line-height:1.25;font-family:sans-serif;-inkscape-font-specification:'sans-serif Bold';stroke-width:0.150629"
       x="175.0321"
       y="17.740005"
       id="text23899"><tspan
         sodipodi:role="line"
         id="tspan23897"
         style="stroke-width:0.150629"
         x="175.0321"
         y="17.740005">锗</tspan></text>
    <g
       aria-label="Ge"
       id="text1178-2-4"
       style="font-weight:bold;font-size:21.8412px;line-height:1.25;-inkscape-font-specification:'sans-serif Bold';stroke-width:0.13057">
      <path
         d="m 23.954927,234.81863 h 6.181059 v 8.08124 q -1.223107,0.41499 -2.55542,0.65524 -1.310472,0.24025 -2.992245,0.24025 -3.494592,0 -5.372935,-2.05307 -1.878343,-2.05307 -1.878343,-5.98449 0,-2.44621 0.939172,-4.23719 0.961012,-1.79098 2.773832,-2.77383 1.81282,-0.98286 4.433764,-0.98286 1.244948,0 2.446214,0.2621 1.201266,0.26209 2.18412,0.69891 l -1.09206,2.64279 q -0.72076,-0.3713 -1.63809,-0.61155 -0.91733,-0.24026 -1.922026,-0.24026 -1.441519,0 -2.511738,0.65524 -1.048377,0.65523 -1.63809,1.8565 -0.567871,1.17943 -0.567871,2.79567 0,1.52889 0.414983,2.70831 0.414983,1.17943 1.310472,1.8565 0.895489,0.65524 2.337008,0.65524 0.698919,0 1.179425,-0.0655 0.502348,-0.0655 0.917331,-0.15289 v -3.25434 h -2.948562 z"
         id="path1166" />
      <path
         d="m 38.501186,231.43324 q 2.468056,0 3.909575,1.41968 1.441519,1.39784 1.441519,3.99694 v 1.57257 h -7.688102 q 0.04368,1.37599 0.808124,2.16228 0.786283,0.78628 2.162279,0.78628 1.157584,0 2.096755,-0.21841 0.939172,-0.24026 1.943867,-0.72076 v 2.51174 q -0.873648,0.43682 -1.856502,0.63339 -0.961013,0.21841 -2.337008,0.21841 -1.790979,0 -3.166974,-0.65523 -1.375996,-0.67708 -2.162279,-2.03124 -0.786283,-1.35415 -0.786283,-3.40722 0,-2.09676 0.698918,-3.47275 0.72076,-1.39784 1.987549,-2.09676 1.26679,-0.69892 2.948562,-0.69892 z m 0.02184,2.31517 q -0.939171,0 -1.572566,0.61155 -0.611554,0.61156 -0.72076,1.90019 h 4.564811 q -0.02184,-1.09206 -0.567871,-1.79098 -0.54603,-0.72076 -1.703614,-0.72076 z"
         id="path1168" />
    </g>
    <path
       style="fill:none;stroke:#000000;stroke-width:2.30215;stroke-linecap:round;stroke-linejoin:miter;stroke-miterlimit:4;stroke-dasharray:none;stroke-opacity:1"
       d="m 63.306923,237.67521 c -0.633495,3.43037 -4.864902,1.81451 -4.197754,-1.0859 0.451697,-1.96389 1.682021,-3.58878 3.535093,-3.85548 2.307325,-0.33208 4.661382,1.49319 4.751397,5.33633 0.22873,9.76542 -16.083378,6.61012 -11.644118,-4.36 0.891545,-2.03204 1.985026,-3.93413 2.936632,-5.63446 1.031692,-1.84332 1.896644,-3.44951 2.156808,-4.72705"
       id="path5211-6-1-6-2-4"
       sodipodi:nodetypes="cssscsc" />
    <path
       style="fill:none;stroke:#000000;stroke-width:2.30215;stroke-linecap:round;stroke-linejoin:miter;stroke-miterlimit:4;stroke-dasharray:none;stroke-opacity:1"
       d="m 111.02076,231.80635 c -2.54405,1.76609 -1.15191,4.87285 0.80691,5.04669 1.82509,0.16197 3.66345,-1.19336 3.73422,-4.26481 0.17978,-7.80455 -12.64015,-5.28283 -9.15128,3.48453 0.70065,1.624 1.56007,3.14416 2.30796,4.50306 0.81081,1.47318 1.4906,2.75686 1.69505,3.77787"
       id="path5211-6-1-6-2-4-5"
       sodipodi:nodetypes="csscsc" />
    <path
       style="fill:none;stroke:#000000;stroke-width:2.30215;stroke-linecap:round;stroke-linejoin:miter;stroke-miterlimit:4;stroke-dasharray:none;stroke-opacity:1"
       d="m 164.37651,232.45619 c -1.01442,1.17895 -3.18761,0.0813 -2.85165,-1.37436 0.35552,-1.54032 1.3238,-2.81475 2.78222,-3.02393 1.8159,-0.26045 3.66857,1.17114 3.73944,4.18537 0.18003,7.65918 -12.65795,5.18443 -9.16416,-3.41962"
       id="path5211-6-1-6-2-4-28"
       sodipodi:nodetypes="csssc" />
    <path
       style="fill:none;stroke:#000000;stroke-width:2.30215;stroke-linecap:round;stroke-linejoin:miter;stroke-miterlimit:4;stroke-dasharray:none;stroke-opacity:1"
       d="m 132.97798,231.56435 c 2.43499,-2.49796 5.05199,1.19893 2.88393,3.23782 -1.468,1.38055 -3.39435,2.04622 -5.08249,1.23686 -2.10199,-1.00779 -3.04253,-3.8342 -0.97914,-7.07768 5.24307,-8.24171 17.04189,3.45565 7.24976,10.10128 -1.87138,1.19248 -3.83824,2.16462 -5.575,3.04802 -1.88282,0.95769 -3.49516,1.81111 -4.42213,2.7279"
       id="path5211-6-1-6-2-4-4"
       sodipodi:nodetypes="cssscsc" />
    <path
       style="fill:none;stroke:#000000;stroke-width:2.30215;stroke-linecap:round;stroke-linejoin:miter;stroke-miterlimit:4;stroke-dasharray:none;stroke-opacity:1"
       d="m 86.970774,233.73744 c -0.633544,3.43038 -4.864902,1.81452 -4.197795,-1.08589 0.451746,-1.9639 1.68207,-3.58878 3.535085,-3.85548 2.307325,-0.33208 4.66139,1.49319 4.751405,5.33633 0.228779,9.76541 -16.083337,6.61012 -11.64407,-4.36001 4.438078,-10.47808 17.047324,-4.90197 16.442745,3.55193 -0.547733,7.65799 -4.59087,11.40278 -8.537971,11.31935 -3.914985,-0.0827 -8.852874,0.34554 -10.287257,0.0476"
       id="path5211-6-1-6-2-4-2"
       sodipodi:nodetypes="cssscssc" />
    <g
       aria-label="锗"
       id="text23899-5"
       style="font-weight:bold;font-size:9.38872px;line-height:1.25;-inkscape-font-specification:'sans-serif Bold';stroke-width:0.13057">
      <path
         d="m 35.217119,217.16476 0.935205,0.6143 q -0.62347,0.80684 -1.301952,1.53117 h 1.219434 v 0.96271 h -2.172975 q -0.394253,0.35758 -0.797675,0.69682 h 2.383855 v 4.54766 h -1.191928 v -0.4401 h -1.99877 v 0.45843 h -1.191927 v -3.09901 q -0.421759,0.2659 -0.852687,0.51345 -0.20171,-0.33007 -0.421759,-0.65098 h -0.614301 v 1.36614 q 0.476771,-0.39426 0.889362,-0.70599 0.02751,0.19254 0.155867,1.2286 -0.770168,0.56846 -1.44865,1.13692 l -0.339241,0.33924 -0.586795,-0.93521 q 0.256723,-0.25672 0.238386,-0.83435 v -1.59535 H 27.13952 v -1.03606 h 0.981048 v -0.9352 h -0.284229 q -0.183374,0.3209 -0.385085,0.59596 -0.146698,-0.72432 -0.375915,-1.47615 0.678482,-1.21027 1.026891,-2.98899 l 1.100241,0.18337 q -0.119193,0.50428 -0.247554,0.97188 h 1.265276 v 1.02689 h -1.604517 q -0.119193,0.33924 -0.256723,0.65098 h 1.439481 v 1.03606 h -0.586795 v 0.9352 h 0.861856 v 0.37592 q 1.283614,-0.5868 2.328842,-1.36613 h -2.292168 v -0.96271 h 1.998771 v -0.80685 h -1.320289 v -0.96271 h 1.320289 v -1.00855 h 1.191927 v 1.00855 h 1.072734 v 0.79768 q 0.440097,-0.55012 0.843518,-1.17359 z m -2.924806,6.95902 h 1.99877 v -0.64181 h -1.99877 z m 1.99877,-2.20048 h -1.99877 v 0.64181 h 1.99877 z m -0.06418,-3.41992 h -0.926036 v 0.80685 h 0.192542 q 0.385084,-0.37592 0.733494,-0.80685 z"
         id="path1171" />
    </g>
    <path
       d="m 29.528071,94.145921 q 2.706463,0 4.088084,0.755564 1.381622,0.755564 1.381622,2.663363 0,1.152235 -0.548864,1.945577 -0.529936,0.793345 -1.533031,0.963345 v 0.0944 q 0.681348,0.13223 1.230211,0.47224 0.548863,0.34 0.87061,0.98223 0.321748,0.64223 0.321748,1.70001 0,1.83225 -1.324843,2.87115 -1.324842,1.03889 -3.633852,1.03889 H 25.326428 V 94.145921 Z m 0.321747,5.345615 q 1.249137,0 1.722295,-0.396671 0.492085,-0.396671 0.492085,-1.152235 0,-0.774453 -0.56779,-1.114457 -0.56779,-0.340004 -1.798,-0.340004 h -1.514105 v 3.003367 z m -1.665515,2.266694 v 3.51337 h 1.873705 q 1.28699,0 1.798,-0.49112 0.51101,-0.51 0.51101,-1.34113 0,-0.75555 -0.529936,-1.2089 -0.511011,-0.47222 -1.873706,-0.47222 z"
       id="path1174"
       style="font-weight:bold;font-size:18.9077px;line-height:1.25;-inkscape-font-specification:'sans-serif Bold';stroke-width:0.13057" />
    <path
       style="fill:none;stroke:#000000;stroke-width:2.30215;stroke-linecap:round;stroke-linejoin:miter;stroke-miterlimit:4;stroke-dasharray:none;stroke-opacity:1"
       d="m 47.370703,93.455731 10.416302,0.0049 V 107.5084"
       id="path5211-2"
       sodipodi:nodetypes="ccc" />
    <path
       style="fill:none;stroke:#000000;stroke-width:2.30215;stroke-linecap:round;stroke-linejoin:miter;stroke-miterlimit:4;stroke-dasharray:none;stroke-opacity:1"
       d="m 66.971696,109.39329 c 3.848758,-0.88992 5.879431,-4.36786 7.185557,-7.44035 1.641013,3.32935 2.681002,6.46698 6.867446,7.39302"
       id="path5211-2-9"
       sodipodi:nodetypes="ccc" />
    <path
       style="fill:none;stroke:#000000;stroke-width:2.30215;stroke-linecap:round;stroke-linejoin:miter;stroke-miterlimit:4;stroke-dasharray:none;stroke-opacity:1"
       d="m 67.648869,97.791463 c 0.06246,-7.027046 4.115731,-8.760983 7.805433,-8.70591 -1.598181,3.620858 -2.998711,7.033213 7.385121,8.040339"
       id="path5211-2-9-6"
       sodipodi:nodetypes="ccc" />
    <path
       style="fill:none;stroke:#000000;stroke-width:2.30215;stroke-linecap:round;stroke-linejoin:miter;stroke-miterlimit:4;stroke-dasharray:none;stroke-opacity:1"
       d="m 175.29314,90.678713 c -5.4836,2.645172 -3.10857,12.559347 -1.70309,15.445787 2.24742,-2.59671 4.40432,-4.96069 9.02746,2.8478"
       id="path5211-2-9-6-9"
       sodipodi:nodetypes="ccc" />
    <path
       style="fill:none;stroke:#000000;stroke-width:2.30215;stroke-linecap:round;stroke-linejoin:miter;stroke-miterlimit:4;stroke-dasharray:none;stroke-opacity:1"
       d="m 107.09789,102.55435 c -4.21191,4.47875 -7.02507,6.56134 -14.654272,4.19553 4.596193,-2.10707 3.910684,-6.54234 0.582761,-13.866174"
       id="path5211-2-9-6-1"
       sodipodi:nodetypes="ccc" />
    <path
       style="fill:none;stroke:#000000;stroke-width:2.30215;stroke-linecap:round;stroke-linejoin:miter;stroke-miterlimit:4;stroke-dasharray:none;stroke-opacity:1"
       d="m 174.50479,111.68943 c 4.20771,-3.27181 5.56817,-8.9837 2.61363,-13.474635 -2.19397,3.803745 -5.96263,2.837635 -12.0056,-0.659504"
       id="path5211-2-9-6-1-0"
       sodipodi:nodetypes="ccc" />
    <path
       d="m 26.263126,84.548399 h 2.264329 v 0.951526 h -0.810392 q -0.17479,0.737434 -0.41314,1.443149 h 1.064632 v 3.869543 q 0.41314,-1.086326 0.41314,-3.393779 v -3.029027 h 2.208714 v 6.5021 q 0,0.08722 -0.0079,0.158588 0.397251,-0.91188 0.397251,-3.282768 v -3.37792 h 2.280218 v 6.5021 q 0,0.76915 -0.611765,0.856374 -0.349581,0.03172 -0.667382,0.02379 -0.07945,-0.467834 -0.214515,-1.030821 0.17479,0.02379 0.397251,0.02379 0.270131,0 0.270131,-0.372681 V 89.26639 h -0.651492 q -0.04767,1.760324 -0.587931,2.640486 -0.214515,-0.309246 -0.619711,-0.792939 -0.0874,0.586775 -0.643546,0.634352 -0.30191,0.03172 -0.627656,0.02379 -0.07151,-0.467834 -0.214515,-1.030821 0.0079,0 0.39725,0.02379 0.270131,0 0.270131,-0.372681 V 89.26638 h -0.595877 q -0.143009,1.625525 -0.675326,2.648416 -0.238349,-0.245811 -0.722995,-0.681928 0.03178,-0.06344 0.0715,-0.12687 h -0.881896 v 0.444046 H 26.60477 v -2.894227 q -0.174791,0.348893 -0.357526,0.689856 0,-0.103081 -0.135065,-1.530372 0.452866,-1.133902 0.730941,-2.315382 h -0.579986 z m 1.438048,5.669514 v -2.386747 h -0.349581 v 2.386747 z m 4.504822,-1.823761 h 0.627656 v -1.118043 h -0.627656 z m 0.627656,-3.100391 h -0.627656 v 1.110115 h 0.627656 z m -3.225676,3.100391 h 0.548207 v -1.118043 h -0.540261 v 0.713645 q 0,0.206164 -0.0079,0.404398 z m 0.548207,-3.100391 h -0.540261 v 1.110115 h 0.540261 z"
       id="path1177"
       style="font-weight:bold;font-size:8.12769px;line-height:1.25;-inkscape-font-specification:'sans-serif Bold';stroke-width:0.13057" />
    <path
       style="fill:none;stroke:#000000;stroke-width:2.30215;stroke-linecap:round;stroke-linejoin:miter;stroke-miterlimit:4;stroke-dasharray:none;stroke-opacity:1"
       d="m 135.21488,97.895048 -0.005,11.241522 H 122.697"
       id="path5211-2-6"
       sodipodi:nodetypes="ccc" />
    <path
       style="fill:none;stroke:#000000;stroke-width:2.30215;stroke-linecap:round;stroke-linejoin:miter;stroke-miterlimit:4;stroke-dasharray:none;stroke-opacity:1"
       d="m 127.97533,113.52683 0.005,-11.24152 h 12.51311"
       id="path5211-2-6-5"
       sodipodi:nodetypes="ccc" />
    <path
       style="fill:none;stroke:#000000;stroke-width:2.30215;stroke-linecap:round;stroke-linejoin:miter;stroke-miterlimit:4;stroke-dasharray:none;stroke-opacity:1"
       d="m 126.7862,85.529098 c -4.05296,1.18917 -6.0108,5.064669 -7.21986,8.459408 -1.95077,-3.497188 -3.24881,-6.823035 -7.77118,-7.574427"
       id="path5211-2-9-9"
       sodipodi:nodetypes="ccc" />
    <path
       style="fill:none;stroke:#000000;stroke-width:2.30215;stroke-linecap:round;stroke-linejoin:miter;stroke-miterlimit:4;stroke-dasharray:none;stroke-opacity:1"
       d="m 127.25043,93.58779 c -4.15985,-0.732443 -6.53533,-4.36697 -8.11338,-7.606653 -1.55095,3.691921 -2.4722,7.14119 -6.88334,8.389382"
       id="path5211-2-9-9-8"
       sodipodi:nodetypes="ccc" />
    <path
       style="fill:none;stroke:#000000;stroke-width:2.30215;stroke-linecap:round;stroke-linejoin:miter;stroke-miterlimit:4;stroke-dasharray:none;stroke-opacity:1"
       d="m 142.6308,87.938624 c 5.20013,1.240345 7.94381,6.087779 9.70854,10.370065 2.21721,-4.640315 3.62238,-9.013404 9.2788,-10.304085"
       id="path5211-2-9-9-86"
       sodipodi:nodetypes="ccc" />
    <path
       style="fill:none;stroke:#000000;stroke-width:2.30215;stroke-linecap:round;stroke-linejoin:miter;stroke-miterlimit:4;stroke-dasharray:none;stroke-opacity:1"
       d="m 149.16539,92.067334 c 1.04176,-1.696777 2.31596,-3.037597 3.15371,-4.094462 1.10172,1.279184 2.21574,2.612256 3.19443,4.22578"
       id="path5211-2-9-9-8-6"
       sodipodi:nodetypes="ccc" />
    <path
       style="fill:none;stroke:#000000;stroke-width:2.30215;stroke-linecap:round;stroke-linejoin:miter;stroke-miterlimit:4;stroke-dasharray:none;stroke-opacity:1"
       d="m 129.42355,228.78943 -4.24291,-2.66263"
       id="path5211-07-8-4"
       sodipodi:nodetypes="cc" />
    <path
       style="fill:none;stroke:#000000;stroke-width:2.30215;stroke-linecap:round;stroke-linejoin:miter;stroke-miterlimit:4;stroke-dasharray:none;stroke-opacity:1"
       d="m 134.62753,225.45459 0.0256,-5.00913"
       id="path5211-07-8-4-0"
       sodipodi:nodetypes="cc" />
    <path
       style="fill:none;stroke:#000000;stroke-width:2.30215;stroke-linecap:round;stroke-linejoin:miter;stroke-miterlimit:4;stroke-dasharray:none;stroke-opacity:1"
       d="m 139.47655,228.68392 3.8678,-3.18313"
       id="path5211-07-8-4-0-5"
       sodipodi:nodetypes="cc" />
    <path
       style="fill:none;stroke:#000000;stroke-width:2.30215;stroke-linecap:round;stroke-linejoin:miter;stroke-miterlimit:4;stroke-dasharray:none;stroke-opacity:1"
       d="m 152.03489,232.94999 6.11824,-0.0173"
       id="path5211-07-8-4-0-5-2"
       sodipodi:nodetypes="cc" />
    <path
       style="fill:none;stroke:#000000;stroke-width:2.30215;stroke-linecap:round;stroke-linejoin:miter;stroke-miterlimit:4;stroke-dasharray:none;stroke-opacity:1"
       d="m 168.91058,232.67063 5.87143,-0.0173"
       id="path5211-07-8-4-0-5-2-6"
       sodipodi:nodetypes="cc" />
    <path
       style="fill:none;stroke:#000000;stroke-width:2.30215;stroke-linecap:round;stroke-linejoin:miter;stroke-miterlimit:4;stroke-dasharray:none;stroke-opacity:1"
       d="m 164.33669,221.60226 0.0173,5.87067"
       id="path5211-07-8-4-0-5-2-2"
       sodipodi:nodetypes="cc" />
    <path
       style="fill:none;stroke:#000000;stroke-width:2.30215;stroke-linecap:round;stroke-linejoin:miter;stroke-miterlimit:4;stroke-dasharray:none;stroke-opacity:1"
       d="m 163.85233,237.65406 0.0173,6.11744"
       id="path5211-07-8-4-0-5-2-2-9"
       sodipodi:nodetypes="cc" />
    <path
       style="fill:none;stroke:#000000;stroke-width:2.30215;stroke-linecap:round;stroke-linejoin:miter;stroke-miterlimit:4;stroke-dasharray:none;stroke-opacity:1"
       d="m 110.58255,226.69908 0.0173,-6.11745"
       id="path5211-07-8-4-0-5-2-2-9-7"
       sodipodi:nodetypes="cc" />
    <path
       style="fill:none;stroke:#000000;stroke-width:2.30215;stroke-linecap:round;stroke-linejoin:miter;stroke-miterlimit:4;stroke-dasharray:none;stroke-opacity:1"
       d="m 138.97204,283.37265 -3.46107,5.22459"
       id="path5211-9-07-2-4-98"
       sodipodi:nodetypes="cc" />
    <path
       style="fill:none;stroke:#000000;stroke-width:2.30215;stroke-linecap:round;stroke-linejoin:miter;stroke-miterlimit:4;stroke-dasharray:none;stroke-opacity:1"
       d="m 178.27328,288.8516 4.09919,4.74047"
       id="path5211-9-07-2-4-98-2"
       sodipodi:nodetypes="cc" />
    <path
       style="fill:none;stroke:#000000;stroke-width:2.30215;stroke-linecap:round;stroke-linejoin:miter;stroke-miterlimit:4;stroke-dasharray:none;stroke-opacity:1"
       d="m 147.21668,282.97919 3.4611,5.22459"
       id="path5211-9-07-2-4-98-7"
       sodipodi:nodetypes="cc" />
    <path
       style="fill:none;stroke:#000000;stroke-width:2.30215;stroke-linecap:round;stroke-linejoin:miter;stroke-miterlimit:4;stroke-dasharray:none;stroke-opacity:1"
       d="m 182.90357,284.01509 6.0525,1.62574"
       id="path5211-9-07-2-4-98-7-2"
       sodipodi:nodetypes="cc" />
    <path
       style="fill:none;stroke:#000000;stroke-width:2.30215;stroke-linecap:round;stroke-linejoin:miter;stroke-miterlimit:4;stroke-dasharray:none;stroke-opacity:1"
       d="m 181.71336,277.39882 5.67863,-2.65112"
       id="path5211-9-07-2-4-98-7-2-2"
       sodipodi:nodetypes="cc" />
    <path
       style="fill:none;stroke:#000000;stroke-width:2.30215;stroke-linecap:round;stroke-linejoin:miter;stroke-miterlimit:4;stroke-dasharray:none;stroke-opacity:1"
       d="m 183.5119,262.68241 c -5.35894,-0.005 -8.51961,13.06415 -8.99524,20.0389 -4.21177,-4.98404 -9.88975,-12.54517 -6.9736,-21.63209"
       id="path5211-6-1-3-15-7"
       sodipodi:nodetypes="ccc" />
    <ellipse
       style="fill:none;stroke:#000000;stroke-width:2.3022;stroke-linecap:round;stroke-miterlimit:4;stroke-dasharray:none;stroke-opacity:1"
       id="path9322-2-2-9-4"
       cx="183.21375"
       cy="-278.16037"
       rx="6.9691615"
       ry="6.8460178"
       transform="matrix(0.99976594,0.02163478,0.03042574,-0.99953703,0,0)" />
    <ellipse
       style="fill:none;stroke:#000000;stroke-width:2.30215;stroke-linecap:round;stroke-miterlimit:4;stroke-dasharray:none;stroke-opacity:1"
       id="path9322-9-8-5-2"
       cx="60.143257"
       cy="143.07355"
       rx="7.6395636"
       ry="7.8577352" />
    <path
       style="fill:none;stroke:#000000;stroke-width:2.30214;stroke-linecap:round;stroke-linejoin:miter;stroke-miterlimit:4;stroke-dasharray:none;stroke-opacity:1"
       d="M 71.763611,142.8834 H 48.300981"
       id="path5211-07-8-7-8-8-3"
       sodipodi:nodetypes="cc" />
    <path
       style="fill:none;stroke:#000000;stroke-width:2.30214;stroke-linecap:round;stroke-linejoin:miter;stroke-miterlimit:4;stroke-dasharray:none;stroke-opacity:1"
       d="m 60.032203,154.93379 v -24.1008"
       id="path5211-07-8-7-8-7-6-1"
       sodipodi:nodetypes="cc" />
    <ellipse
       style="fill:none;stroke:#000000;stroke-width:2.30215;stroke-linecap:round;stroke-miterlimit:4;stroke-dasharray:none;stroke-opacity:1"
       id="path9322-9-8-5-2-96"
       cx="89.08519"
       cy="137.28967"
       rx="5.9686079"
       ry="6.0492725" />
    <path
       style="fill:none;stroke:#000000;stroke-width:2.30214;stroke-linecap:round;stroke-linejoin:miter;stroke-miterlimit:4;stroke-dasharray:none;stroke-opacity:1"
       d="M 100.3644,137.1433 H 77.490305"
       id="path5211-07-8-7-8-8-3-9"
       sodipodi:nodetypes="cc" />
    <path
       style="fill:none;stroke:#000000;stroke-width:2.30214;stroke-linecap:round;stroke-linejoin:miter;stroke-miterlimit:4;stroke-dasharray:none;stroke-opacity:1"
       d="M 88.998416,143.21963 V 131.5611"
       id="path5211-07-8-7-8-7-6-1-9"
       sodipodi:nodetypes="cc" />
    <ellipse
       style="fill:none;stroke:#000000;stroke-width:2.30215;stroke-linecap:round;stroke-miterlimit:4;stroke-dasharray:none;stroke-opacity:1"
       id="path9322-9-8-5-2-96-3"
       cx="170.24924"
       cy="-134.66061"
       rx="11.602665"
       ry="6.0492725"
       transform="scale(1,-1)" />
    <path
       style="fill:none;stroke:#000000;stroke-width:2.30214;stroke-linecap:round;stroke-linejoin:miter;stroke-miterlimit:4;stroke-dasharray:none;stroke-opacity:1"
       d="M 180.27518,134.807 H 146.83629"
       id="path5211-07-8-7-8-8-3-9-5"
       sodipodi:nodetypes="cc" />
    <path
       style="fill:none;stroke:#000000;stroke-width:2.30214;stroke-linecap:round;stroke-linejoin:miter;stroke-miterlimit:4;stroke-dasharray:none;stroke-opacity:1"
       d="m 172.00123,129.51408 v 10.19006"
       id="path5211-07-8-7-8-7-6-1-9-5"
       sodipodi:nodetypes="cc" />
    <path
       style="fill:none;stroke:#000000;stroke-width:2.30214;stroke-linecap:round;stroke-linejoin:miter;stroke-miterlimit:4;stroke-dasharray:none;stroke-opacity:1"
       d="m 175.94315,141.17303 2.77244,12.90468"
       id="path5211-07-8-7-8-7-6-1-9-5-39"
       sodipodi:nodetypes="cc" />
    <path
       style="fill:none;stroke:#000000;stroke-width:2.30214;stroke-linecap:round;stroke-linejoin:miter;stroke-miterlimit:4;stroke-dasharray:none;stroke-opacity:1"
       d="m 161.6889,139.87395 -6.19713,11.76393"
       id="path5211-07-8-7-8-7-6-1-9-5-6"
       sodipodi:nodetypes="cc" />
    <path
       style="fill:none;stroke:#000000;stroke-width:2.30214;stroke-linecap:round;stroke-linejoin:miter;stroke-miterlimit:4;stroke-dasharray:none;stroke-opacity:1"
       d="m 168.60165,141.64455 -2.06571,12.74762"
       id="path5211-07-8-7-8-7-6-1-9-5-3"
       sodipodi:nodetypes="cc" />
    <ellipse
       style="fill:none;stroke:#000000;stroke-width:2.30215;stroke-linecap:round;stroke-miterlimit:4;stroke-dasharray:none;stroke-opacity:1"
       id="path9322-9-8-5-2-96-8"
       cx="150.98265"
       cy="-108.29465"
       rx="5.9686079"
       ry="6.0492725"
       transform="rotate(90)" />
    <ellipse
       style="fill:none;stroke:#000000;stroke-width:2.30215;stroke-linecap:round;stroke-miterlimit:4;stroke-dasharray:none;stroke-opacity:1"
       id="path9322-9-8-5-2-96-8-3"
       cx="100.73759"
       cy="168.2562"
       rx="5.9686079"
       ry="6.0492725"
       transform="matrix(-0.2679688,0.96342759,0.96342759,0.2679688,0,0)" />
    <path
       style="fill:none;stroke:#000000;stroke-width:2.30214;stroke-linecap:round;stroke-linejoin:miter;stroke-miterlimit:4;stroke-dasharray:none;stroke-opacity:1"
       d="M 108.44115,156.27999 V 134.51881"
       id="path5211-07-8-7-8-8-3-9-3"
       sodipodi:nodetypes="cc" />
    <path
       style="fill:none;stroke:#000000;stroke-width:2.30214;stroke-linecap:round;stroke-linejoin:miter;stroke-miterlimit:4;stroke-dasharray:none;stroke-opacity:1"
       d="m 89.566424,156.94728 c 14.708116,-9.20071 26.301606,-7.34757 36.837926,-0.27822"
       id="path5211-07-8-7-8-7-6-1-9-8"
       sodipodi:nodetypes="cc" />
    <path
       style="fill:none;stroke:#000000;stroke-width:2.30214;stroke-linecap:round;stroke-linejoin:miter;stroke-miterlimit:4;stroke-dasharray:none;stroke-opacity:1"
       d="m 149.8846,143.20279 c -5.77225,3.97512 -14.02073,3.43392 -18.48393,-4.69876"
       id="path5211-07-8-7-8-7-6-1-9-8-4"
       sodipodi:nodetypes="cc" />
    <path
       style="fill:none;stroke:#000000;stroke-width:2.30214;stroke-linecap:round;stroke-linejoin:miter;stroke-miterlimit:4;stroke-dasharray:none;stroke-opacity:1"
       d="m 138.01416,137.59941 c -7.63542,6.04077 -7.66996,18.10285 1.26172,22.33467"
       id="path5211-07-8-7-8-7-6-1-9-8-4-7"
       sodipodi:nodetypes="cc" />
    <path
       style="fill:none;stroke:#000000;stroke-width:2.65582;stroke-linecap:round;stroke-linejoin:miter;stroke-miterlimit:4;stroke-dasharray:none;stroke-opacity:1"
       d="m 94.845499,48.615334 c -6.827979,11.218015 6.961481,11.96358 7.980651,9.169309"
       id="path5211-6-8-3-4-7"
       sodipodi:nodetypes="cc" />
    <ellipse
       style="fill:none;stroke:#000000;stroke-width:2.65582;stroke-linecap:round;stroke-miterlimit:4;stroke-dasharray:none;stroke-opacity:1"
       id="path9322-93-6"
       cx="-57.714184"
       cy="98.64698"
       rx="10.246343"
       ry="10.368556"
       transform="rotate(-90)" />
    <ellipse
       style="fill:none;stroke:#000000;stroke-width:2.65582;stroke-linecap:round;stroke-miterlimit:4;stroke-dasharray:none;stroke-opacity:1"
       id="path9322-93-2-3-1"
       cx="-63.154533"
       cy="96.600784"
       rx="4.4165845"
       ry="4.3791971"
       transform="matrix(-0.89777233,0.44045981,0.44043388,0.89778505,0,0)" />
    <ellipse
       style="fill:none;stroke:#000000;stroke-width:2.65582;stroke-linecap:round;stroke-miterlimit:4;stroke-dasharray:none;stroke-opacity:1"
       id="path9322-9-8-5-2-0"
       cx="58.310299"
       cy="56.546154"
       rx="7.2455692"
       ry="7.4563046" />
    <path
       style="fill:none;stroke:#000000;stroke-width:2.65581;stroke-linecap:round;stroke-linejoin:miter;stroke-miterlimit:4;stroke-dasharray:none;stroke-opacity:1"
       d="M 69.331339,56.36576 H 47.078738"
       id="path5211-07-8-7-8-8-3-38"
       sodipodi:nodetypes="cc" />
    <path
       style="fill:none;stroke:#000000;stroke-width:2.65581;stroke-linecap:round;stroke-linejoin:miter;stroke-miterlimit:4;stroke-dasharray:none;stroke-opacity:1"
       d="M 58.204919,67.8005 V 44.930952"
       id="path5211-07-8-7-8-7-6-1-2"
       sodipodi:nodetypes="cc" />
  </g>
</svg>
